<svg width="100" height="100" viewBox="0 0 100 100" fill="none" xmlns="http://www.w3.org/2000/svg">
      <circle cx="50" cy="50" r="48" stroke="#2E9CCA" stroke-width="4"/>
      <path d="M25 50C25 50 30 40 40 40C50 40 60 60 70 60C80 60 75 50 75 50" stroke="#E0FFFF" stroke-width="4" stroke-linecap="round" stroke-linejoin="round"/>
      <path d="M30 50L35 45L40 50L45 45L50 50L55 45L60 50L65 45L70 50" stroke="#E0FFFF" stroke-width="2" stroke-linecap="round" stroke-linejoin="round"/>
      <path d="M30 55L35 60L40 55L45 60L50 55L55 60L60 55L65 60L70 55" stroke="#E0FFFF" stroke-width="2" stroke-linecap="round" stroke-linejoin="round"/>
    </svg>